<?xml version="1.0" encoding="utf-8"?>
<!-- Generator: Adobe Illustrator 16.0.0, SVG Export Plug-In . SVG Version: 6.00 Build 0)  -->
<!DOCTYPE svg PUBLIC "-//W3C//DTD SVG 1.1//EN" "http://www.w3.org/Graphics/SVG/1.1/DTD/svg11.dtd">
<svg version="1.1" id="Layer_1" xmlns="http://www.w3.org/2000/svg" xmlns:xlink="http://www.w3.org/1999/xlink" x="0px" y="0px"
	 width="800px" height="600px" viewBox="0 0 800 600" enable-background="new 0 0 800 600" xml:space="preserve">
<rect display="none" fill="#444444" width="240" height="80"/>
<g>
	<g>
		<g>
			<rect fill="none" width="40" height="40"/>
			<path id="Twitter_1_" fill="#777777" d="M38.457,8.551c-1.357,0.604-2.817,1.01-4.35,1.193c1.564-0.938,2.765-2.421,3.331-4.19
				c-1.464,0.868-3.085,1.498-4.81,1.838C31.246,5.92,29.279,5,27.101,5c-4.183,0-7.574,3.391-7.574,7.573
				c0,0.594,0.067,1.172,0.196,1.727c-6.295-0.316-11.875-3.331-15.611-7.914c-0.652,1.119-1.025,2.42-1.025,3.808
				c0,2.629,1.337,4.946,3.369,6.304c-1.241-0.039-2.409-0.38-3.43-0.946c-0.001,0.031-0.001,0.062-0.001,0.095
				c0,3.67,2.611,6.73,6.076,7.427c-0.636,0.174-1.305,0.266-1.996,0.266c-0.488,0-0.962-0.048-1.424-0.136
				c0.963,3.009,3.76,5.198,7.074,5.259c-2.592,2.031-5.857,3.242-9.406,3.242c-0.611,0-1.214-0.036-1.807-0.105
				C4.894,33.746,8.875,35,13.152,35C27.082,35,34.7,23.46,34.7,13.452c0-0.329-0.007-0.655-0.022-0.98
				C36.158,11.404,37.442,10.07,38.457,8.551z"/>
		</g>
		<g>
			<rect x="40" fill="none" width="40" height="40"/>
			<path id="Facebook_1_" fill="#777777" d="M62.322,35V21.316h4.594l0.688-5.334h-5.281v-3.405c0-1.544,0.43-2.596,2.644-2.596
				l2.823-0.002V5.21C67.301,5.146,65.625,5,63.674,5c-4.071,0-6.858,2.485-6.858,7.05v3.933h-4.604v5.334h4.604V35H62.322z"/>
		</g>
		<g>
			<rect x="80" fill="none" width="40" height="40"/>
			<path id="Google_1_" fill="#777777" d="M100.799,22.127l-1.406-1.093c-0.43-0.355-1.016-0.824-1.016-1.683
				c0-0.862,0.586-1.411,1.096-1.918c1.639-1.29,3.275-2.662,3.275-5.556c0-2.975-1.871-4.54-2.768-5.282h2.418L104.938,5h-7.691
				c-2.111,0-5.152,0.5-7.38,2.338c-1.679,1.448-2.497,3.444-2.497,5.242c0,3.051,2.342,6.144,6.479,6.144
				c0.392,0,0.818-0.039,1.249-0.079c-0.193,0.47-0.389,0.861-0.389,1.526c0,1.211,0.622,1.956,1.172,2.659
				c-1.758,0.121-5.039,0.315-7.459,1.803c-2.305,1.369-3.006,3.364-3.006,4.772c0,2.896,2.73,5.595,8.393,5.595
				c6.715,0,10.27-3.716,10.27-7.394C104.078,24.904,102.518,23.574,100.799,22.127z M95.686,17.628
				c-3.359,0-4.881-4.343-4.881-6.963c0-1.02,0.193-2.073,0.857-2.896c0.627-0.784,1.717-1.292,2.734-1.292
				c3.238,0,4.918,4.381,4.918,7.199c0,0.705-0.077,1.954-0.976,2.857C97.711,17.16,96.66,17.628,95.686,17.628z M95.724,33.36
				c-4.177,0-6.87-1.999-6.87-4.776s2.497-3.717,3.356-4.029c1.639-0.551,3.747-0.628,4.1-0.628c0.391,0,0.586,0,0.896,0.04
				c2.971,2.113,4.258,3.166,4.258,5.166C101.463,31.557,99.473,33.36,95.724,33.36z M110.658,17.568v-3.912h-1.932v3.912h-3.906
				v1.953h3.906v3.936h1.932v-3.936h3.926v-1.953H110.658z"/>
		</g>
		<g>
			<rect x="120" fill="none" width="40" height="40"/>
			<path id="LinkedIn_1_" fill="#777777" d="M128.467,11.506c-2.053,0-3.381-1.456-3.381-3.253c0-1.84,1.369-3.253,3.467-3.253
				s3.381,1.413,3.424,3.253c0,1.797-1.326,3.253-3.467,3.253H128.467z M125.258,35V14.072h6.506V35H125.258z M135.057,20.749
				c0-2.61-0.086-4.793-0.172-6.677h5.65l0.301,2.911h0.127c0.855-1.37,2.953-3.381,6.463-3.381c4.279,0,7.488,2.866,7.488,9.03V35
				h-6.504V23.402c0-2.696-0.941-4.536-3.297-4.536c-1.797,0-2.865,1.241-3.338,2.439c-0.172,0.428-0.213,1.027-0.213,1.626V35
				h-6.506V20.749z"/>
		</g>
		<g>
			<rect x="160" fill="none" width="40" height="40"/>
			<path id="Analytics_1_" fill="#777777" d="M194.736,10.526c-2.906,0-5.263,2.355-5.263,5.263c0,0.976,0.271,1.886,0.732,2.67
				l-4.898,4.897c-0.342-0.127-0.711-0.199-1.098-0.199c-0.386,0-0.755,0.072-1.097,0.199l-5.673-5.672
				c0.288-0.57,0.455-1.213,0.455-1.896c0-2.325-1.886-4.211-4.211-4.211c-2.326,0-4.211,1.886-4.211,4.211
				c0,0.683,0.166,1.325,0.454,1.896l-5.673,5.672c-0.343-0.127-0.71-0.199-1.097-0.199c-1.744,0-3.158,1.414-3.158,3.158
				s1.414,3.158,3.158,3.158c1.743,0,3.157-1.414,3.157-3.158c0-0.387-0.072-0.756-0.2-1.098l5.674-5.672
				c0.57,0.288,1.213,0.453,1.896,0.453s1.325-0.165,1.896-0.453l5.672,5.672c-0.126,0.342-0.199,0.711-0.199,1.098
				c0,1.744,1.414,3.158,3.157,3.158c1.745,0,3.159-1.414,3.159-3.158c0-0.387-0.074-0.756-0.2-1.098l4.898-4.898
				c0.783,0.463,1.693,0.732,2.669,0.732c2.908,0,5.264-2.355,5.264-5.263S197.645,10.526,194.736,10.526z"/>
		</g>
		<g>
			<rect x="200" fill="none" width="40" height="40"/>
			<path id="Feedly_1_" fill="#777777" d="M225.465,5.25c0.334-0.333,0.879-0.333,1.213,0l2.834,2.833
				c0.334,0.334,0.334,0.88,0,1.214L216.559,22.25c-0.332,0.334-0.992,0.607-1.465,0.607h-2.33c-0.473,0-1.133-0.273-1.467-0.607
				l-0.809-0.81c-0.334-0.334-0.334-0.88,0-1.214L225.465,5.25z M216.559,26.297c-0.332,0.334-0.332,0.881,0,1.215l0.811,0.81
				c0.334,0.334,0.994,0.607,1.465,0.607h2.332c0.471,0,1.131-0.273,1.465-0.607l6.881-6.881c0.334-0.334,0.334-0.88,0-1.214
				l-2.834-2.833c-0.334-0.334-0.879-0.334-1.213,0L216.559,26.297z M222.631,32.369c-0.334,0.334-0.334,0.88,0,1.214l0.811,0.81
				c0.334,0.334,0.992,0.607,1.465,0.607h2.33c0.473,0,1.133-0.273,1.467-0.607l0.809-0.81c0.334-0.334,0.334-0.88,0-1.214
				l-2.834-2.834c-0.334-0.334-0.879-0.334-1.213,0L222.631,32.369z"/>
		</g>
	</g>
	<g>
		<g>
			<rect y="40" fill="none" width="40" height="40"/>
			<path id="Twitter" fill="#FFFFFF" d="M38.457,48.551c-1.357,0.604-2.817,1.01-4.35,1.193c1.564-0.938,2.765-2.421,3.331-4.19
				c-1.464,0.868-3.085,1.498-4.81,1.838C31.246,45.92,29.279,45,27.101,45c-4.183,0-7.574,3.391-7.574,7.573
				c0,0.594,0.067,1.172,0.196,1.727c-6.295-0.316-11.875-3.331-15.611-7.914c-0.652,1.119-1.025,2.42-1.025,3.808
				c0,2.629,1.337,4.946,3.369,6.304c-1.241-0.039-2.409-0.38-3.43-0.946c-0.001,0.031-0.001,0.062-0.001,0.095
				c0,3.67,2.611,6.73,6.076,7.427c-0.636,0.174-1.305,0.266-1.996,0.266c-0.488,0-0.962-0.048-1.424-0.136
				c0.963,3.009,3.76,5.198,7.074,5.259c-2.592,2.031-5.857,3.242-9.406,3.242c-0.611,0-1.214-0.036-1.807-0.105
				C4.894,73.746,8.875,75,13.152,75C27.082,75,34.7,63.46,34.7,53.452c0-0.329-0.007-0.655-0.022-0.98
				C36.158,51.404,37.442,50.07,38.457,48.551z"/>
		</g>
		<g>
			<rect x="40" y="40" fill="none" width="40" height="40"/>
			<path id="Facebook" fill="#FFFFFF" d="M62.322,75V61.316h4.594l0.688-5.334h-5.281v-3.404c0-1.545,0.43-2.597,2.644-2.597
				l2.823-0.002v-4.77C67.301,45.146,65.625,45,63.674,45c-4.071,0-6.858,2.485-6.858,7.05v3.933h-4.604v5.334h4.604V75H62.322z"/>
		</g>
		<g>
			<rect x="80" y="40" fill="none" width="40" height="40"/>
			<path id="Google" fill="#FFFFFF" d="M100.799,62.127l-1.406-1.093c-0.43-0.355-1.016-0.824-1.016-1.683
				c0-0.862,0.586-1.41,1.096-1.918c1.639-1.29,3.275-2.662,3.275-5.557c0-2.975-1.871-4.539-2.768-5.281h2.418L104.938,45h-7.691
				c-2.111,0-5.152,0.5-7.38,2.338c-1.679,1.447-2.497,3.444-2.497,5.242c0,3.051,2.342,6.145,6.479,6.145
				c0.392,0,0.818-0.039,1.249-0.079c-0.193,0.47-0.389,0.861-0.389,1.526c0,1.211,0.622,1.955,1.172,2.658
				c-1.758,0.121-5.039,0.315-7.459,1.803c-2.305,1.369-3.006,3.364-3.006,4.772c0,2.896,2.73,5.595,8.393,5.595
				c6.715,0,10.27-3.716,10.27-7.394C104.078,64.904,102.518,63.574,100.799,62.127z M95.686,57.628
				c-3.359,0-4.881-4.343-4.881-6.963c0-1.021,0.193-2.073,0.857-2.896c0.627-0.783,1.717-1.292,2.734-1.292
				c3.238,0,4.918,4.382,4.918,7.199c0,0.705-0.077,1.954-0.976,2.857C97.711,57.16,96.66,57.628,95.686,57.628z M95.724,73.36
				c-4.177,0-6.87-1.999-6.87-4.776s2.497-3.717,3.356-4.029c1.639-0.551,3.747-0.628,4.1-0.628c0.391,0,0.586,0,0.896,0.04
				c2.971,2.113,4.258,3.166,4.258,5.166C101.463,71.557,99.473,73.36,95.724,73.36z M110.658,57.568v-3.912h-1.932v3.912h-3.906
				v1.953h3.906v3.936h1.932v-3.936h3.926v-1.953H110.658z"/>
		</g>
		<g>
			<rect x="120" y="40" fill="none" width="40" height="40"/>
			<path id="LinkedIn" fill="#FFFFFF" d="M128.467,51.506c-2.053,0-3.381-1.456-3.381-3.253c0-1.84,1.369-3.253,3.467-3.253
				s3.381,1.413,3.424,3.253c0,1.797-1.326,3.253-3.467,3.253H128.467z M125.258,75V54.072h6.506V75H125.258z M135.057,60.749
				c0-2.61-0.086-4.793-0.172-6.677h5.65l0.301,2.911h0.127c0.855-1.37,2.953-3.381,6.463-3.381c4.279,0,7.488,2.866,7.488,9.03V75
				h-6.504V63.402c0-2.696-0.941-4.536-3.297-4.536c-1.797,0-2.865,1.241-3.338,2.439c-0.172,0.428-0.213,1.027-0.213,1.626V75
				h-6.506V60.749z"/>
		</g>
		<g>
			<rect x="160" y="40" fill="none" width="40" height="40"/>
			<path id="Analytics" fill="#FFFFFF" d="M194.736,50.526c-2.906,0-5.263,2.355-5.263,5.263c0,0.976,0.271,1.886,0.732,2.67
				l-4.898,4.897c-0.342-0.127-0.711-0.199-1.098-0.199c-0.386,0-0.755,0.072-1.097,0.199l-5.673-5.672
				c0.288-0.57,0.455-1.213,0.455-1.896c0-2.325-1.886-4.211-4.211-4.211c-2.326,0-4.211,1.886-4.211,4.211
				c0,0.683,0.166,1.325,0.454,1.896l-5.673,5.672c-0.343-0.127-0.71-0.199-1.097-0.199c-1.744,0-3.158,1.414-3.158,3.158
				s1.414,3.158,3.158,3.158c1.743,0,3.157-1.414,3.157-3.158c0-0.387-0.072-0.756-0.2-1.098l5.674-5.672
				c0.57,0.288,1.213,0.453,1.896,0.453s1.325-0.165,1.896-0.453l5.672,5.672c-0.126,0.342-0.199,0.711-0.199,1.098
				c0,1.744,1.414,3.158,3.157,3.158c1.745,0,3.159-1.414,3.159-3.158c0-0.387-0.074-0.756-0.2-1.098l4.898-4.898
				c0.783,0.463,1.693,0.732,2.669,0.732c2.908,0,5.264-2.355,5.264-5.263S197.645,50.526,194.736,50.526z"/>
		</g>
		<g>
			<rect x="200" y="40" fill="none" width="40" height="40"/>
			<path id="Feedly" fill="#FFFFFF" d="M225.465,45.25c0.334-0.334,0.879-0.334,1.213,0l2.834,2.834c0.334,0.334,0.334,0.88,0,1.214
				L216.559,62.25c-0.332,0.334-0.992,0.607-1.465,0.607h-2.33c-0.473,0-1.133-0.273-1.467-0.607l-0.809-0.81
				c-0.334-0.334-0.334-0.88,0-1.214L225.465,45.25z M216.559,66.297c-0.332,0.334-0.332,0.881,0,1.215l0.811,0.81
				c0.334,0.334,0.994,0.607,1.465,0.607h2.332c0.471,0,1.131-0.273,1.465-0.607l6.881-6.881c0.334-0.334,0.334-0.88,0-1.214
				l-2.834-2.834c-0.334-0.334-0.879-0.334-1.213,0L216.559,66.297z M222.631,72.369c-0.334,0.334-0.334,0.88,0,1.214l0.811,0.81
				c0.334,0.334,0.992,0.607,1.465,0.607h2.33c0.473,0,1.133-0.273,1.467-0.607l0.809-0.81c0.334-0.334,0.334-0.88,0-1.214
				l-2.834-2.834c-0.334-0.334-0.879-0.334-1.213,0L222.631,72.369z"/>
		</g>
	</g>
</g>
<g>
	<rect y="80" fill="none" width="12" height="12"/>
	<path fill="#22AAEE" d="M12,82.278c-0.441,0.196-0.916,0.328-1.414,0.388c0.508-0.305,0.898-0.787,1.082-1.362
		c-0.475,0.282-1.002,0.487-1.562,0.597c-0.449-0.479-1.09-0.777-1.798-0.777c-1.359,0-2.461,1.102-2.461,2.462
		c0,0.193,0.021,0.381,0.064,0.561c-2.046-0.103-3.86-1.083-5.075-2.573c-0.212,0.364-0.333,0.787-0.333,1.238
		c0,0.854,0.435,1.608,1.096,2.049c-0.404-0.013-0.784-0.124-1.115-0.308c0,0.011,0,0.021,0,0.031c0,1.193,0.849,2.188,1.975,2.414
		c-0.207,0.057-0.424,0.087-0.648,0.087c-0.159,0-0.313-0.016-0.463-0.045c0.313,0.979,1.222,1.69,2.3,1.71
		c-0.843,0.66-1.904,1.054-3.058,1.054c-0.199,0-0.395-0.012-0.587-0.034c1.089,0.698,2.384,1.106,3.774,1.106
		c4.528,0,7.004-3.752,7.004-7.005c0-0.106-0.002-0.212-0.007-0.318C11.253,83.205,11.67,82.771,12,82.278z"/>
</g>
<g>
	<rect x="20" y="80" fill="#335599" width="12" height="12"/>
	<path id="f_2_" fill="#FFFFFF" d="M26.775,92v-4.562h1.53l0.229-1.778h-1.76v-1.135c0-0.514,0.143-0.865,0.881-0.865h0.94v-1.59
		C28.435,82.049,27.876,82,27.226,82c-1.357,0-2.286,0.828-2.286,2.35v1.311h-1.535v1.778h1.535V92H26.775z"/>
</g>
<g>
	<rect x="40" y="80" fill="#DD4433" width="12" height="12"/>
	<path fill="#FFFFFF" d="M46.239,86.639l-0.422-0.328c-0.127-0.107-0.303-0.248-0.303-0.506s0.176-0.423,0.328-0.575
		c0.491-0.387,0.983-0.798,0.983-1.667c0-0.893-0.562-1.361-0.831-1.584h0.725l0.762-0.479h-2.307c-0.634,0-1.545,0.149-2.215,0.701
		c-0.502,0.434-0.749,1.033-0.749,1.572c0,0.916,0.703,1.844,1.944,1.844c0.117,0,0.246-0.012,0.375-0.023
		c-0.059,0.141-0.117,0.258-0.117,0.457c0,0.363,0.188,0.588,0.352,0.799c-0.527,0.035-1.512,0.094-2.237,0.541
		c-0.691,0.41-0.902,1.009-0.902,1.431c0,0.868,0.819,1.679,2.518,1.679c2.014,0,3.081-1.115,3.081-2.218
		C47.223,87.471,46.754,87.072,46.239,86.639z M44.705,85.288c-1.008,0-1.463-1.302-1.463-2.089c0-0.307,0.057-0.621,0.256-0.869
		c0.189-0.234,0.516-0.387,0.82-0.387c0.973,0,1.475,1.314,1.475,2.16c0,0.211-0.022,0.586-0.292,0.856
		C45.313,85.148,44.998,85.288,44.705,85.288z M44.717,90.008c-1.252,0-2.061-0.6-2.061-1.433s0.749-1.114,1.006-1.208
		c0.492-0.166,1.125-0.189,1.23-0.189c0.117,0,0.176,0,0.27,0.012c0.891,0.635,1.277,0.951,1.277,1.551
		C46.439,89.467,45.842,90.008,44.717,90.008z M49.198,85.271v-1.173h-0.58v1.173h-1.172v0.586h1.172v1.181h0.58v-1.181h1.178
		v-0.586H49.198z"/>
</g>
</svg>
