<?xml version="1.0" encoding="utf-8"?>
<!-- Generator: Adobe Illustrator 16.0.0, SVG Export Plug-In . SVG Version: 6.00 Build 0)  -->
<!DOCTYPE svg PUBLIC "-//W3C//DTD SVG 1.1//EN" "http://www.w3.org/Graphics/SVG/1.1/DTD/svg11.dtd">
<svg version="1.1" id="Layer_1" xmlns="http://www.w3.org/2000/svg" xmlns:xlink="http://www.w3.org/1999/xlink" x="0px" y="0px"
	 width="800px" height="600px" viewBox="0 0 800 600" enable-background="new 0 0 800 600" xml:space="preserve">
<g>
	<rect x="10" y="10" fill="none" width="80" height="80"/>
	<path fill="#BBBBBB" d="M84.998,49.987C77.187,41.649,63.801,30,50.001,30c-13.799,0-27.183,11.646-34.995,19.984L15,49.987
		c0.648,0.692,1.336,1.407,2.059,2.137C25.133,60.279,37.402,70,50.001,70c12.598,0,24.868-9.722,32.943-17.878
		c0.722-0.729,1.408-1.443,2.056-2.134L84.998,49.987z M50,46c0,2.761-2.238,5-5,5s-5-2.239-5-5s2.238-5,5-5S50,43.239,50,46z
		 M50.001,64c-9.567,0-19.394-7.183-26.574-14c4.05-3.849,8.964-7.828,14.206-10.557C36.594,41.4,36,43.63,36,46
		c0,7.732,6.268,14,14,14s14-6.268,14-14c0-2.371-0.594-4.601-1.634-6.557c5.243,2.729,10.158,6.708,14.209,10.558
		C69.394,56.818,59.565,64,50.001,64z"/>
</g>
<g>
	<rect x="110" y="10" fill="none" width="80" height="80"/>
	<path fill="#BBBBBB" d="M167.5,32.5c0-9.665-7.834-17.5-17.5-17.5c-9.664,0-17.5,7.835-17.5,17.5c0,6.98,4.088,13.005,10,15.813V80
		l5,5l7.5-7.5v-5l-2.5-2.5l2.5-2.5l-2.5-2.5l2.5-2.5l-2.5-2.5l5-5v-6.687C163.412,45.505,167.5,39.48,167.5,32.5z M150,20
		c1.381,0,2.5,1.119,2.5,2.5S151.381,25,150,25s-2.5-1.119-2.5-2.5S148.619,20,150,20z"/>
</g>
<g>
	<rect y="100" fill="none" width="30" height="30"/>
	<polygon fill="#FFFFFF" points="21,113.8 16.2,113.8 16.2,109 13.8,109 13.8,113.8 9,113.8 9,116.2 13.8,116.2 13.8,121 16.2,121 
		16.2,116.2 21,116.2 	"/>
</g>
<g>
	<rect x="30" y="100" fill="none" width="30" height="30"/>
	<path opacity="0.3" fill="#222222" d="M45.6,109c-0.33,0-0.6,0.27-0.6,0.6v1.801c0,0.33-0.27,0.6-0.6,0.6H37.6
		c-0.33,0-0.6,0.27-0.6,0.6v7.801c0,0.33,0.27,0.6,0.6,0.6H52.4c0.33,0,0.6-0.27,0.6-0.6V109.6c0-0.33-0.27-0.6-0.6-0.6H45.6z"/>
</g>
</svg>
